<?xml version="1.0" encoding="UTF-8"?>
<svg id="Layer_2" data-name="Layer 2" xmlns="http://www.w3.org/2000/svg" viewBox="0 0 35.18 28.57">
  <defs>
    <style>
      .cls-1 {
        stroke: #76b73d;
      }

      .cls-1, .cls-2 {
        fill: none;
        stroke-linejoin: round;
        stroke-width: 2px;
      }

      .cls-2 {
        stroke: #000;
      }
    </style>
  </defs>
  <g id="Layer_1-2" data-name="Layer 1">
    <path class="cls-2" d="M1,4.52v19.54c0,1.94,1.57,3.52,3.52,3.52h26.15c1.94,0,3.52-1.57,3.52-3.52v-.48c0-1.94-1.57-3.52-3.52-3.52h-12.29L8.29,2.75c-.63-1.07-1.77-1.74-3.02-1.75h-.74c-1.95-.02-3.54,1.56-3.54,3.51Z"/>
    <polygon class="cls-1" points="31.97 10.5 30.55 5.76 26.28 5.76 22.02 5.76 20.59 10.5 19.17 10.5 19.17 15.08 20.59 15.08 20.59 16.89 24.49 16.89 24.49 15.08 26.28 15.08 28.08 15.08 28.08 16.89 31.97 16.89 31.97 15.08 33.39 15.08 33.39 10.5 31.97 10.5"/>
  </g>
</svg>