<?xml version="1.0" encoding="UTF-8"?>
<svg id="Layer_2" data-name="Layer 2" xmlns="http://www.w3.org/2000/svg" viewBox="0 0 35.18 32.71">
  <defs>
    <style>
      .cls-1 {
        stroke: #76b73d;
      }

      .cls-1, .cls-2 {
        fill: none;
        stroke-linejoin: round;
        stroke-width: 2px;
      }

      .cls-2 {
        stroke: #000;
      }
    </style>
  </defs>
  <g id="Layer_1-2" data-name="Layer 1">
    <path class="cls-2" d="M1,18.74v10.42c0,1.41,1.14,2.55,2.55,2.55h28.09c1.41,0,2.55-1.14,2.55-2.55v-2.42c0-1.41-1.14-2.55-2.55-2.55h-5.35l-4-6.73c-.46-.77-1.29-1.24-2.19-1.25l-16.54-.03c-1.41,0-2.55,1.14-2.55,2.55Z"/>
    <polygon class="cls-1" points="18.17 5.74 16.75 1 12.48 1 8.21 1 6.79 5.74 5.37 5.74 5.37 10.32 6.79 10.32 6.79 12.14 10.68 12.14 10.68 10.32 12.48 10.32 14.28 10.32 14.28 12.14 18.17 12.14 18.17 10.32 19.59 10.32 19.59 5.74 18.17 5.74"/>
  </g>
</svg>