<?xml version="1.0" encoding="UTF-8"?>
<svg id="Layer_2" data-name="Layer 2" xmlns="http://www.w3.org/2000/svg" viewBox="0 0 35.18 28.58">
  <defs>
    <style>
      .cls-1 {
        stroke: #76b73d;
      }

      .cls-1, .cls-2 {
        fill: none;
        stroke-linejoin: round;
        stroke-width: 2px;
      }

      .cls-2 {
        stroke: #000;
      }
    </style>
  </defs>
  <g id="Layer_1-2" data-name="Layer 1">
    <path class="cls-2" d="M1,4.1v20.38c0,1.71,1.39,3.1,3.1,3.1h26.98c1.71,0,3.1-1.39,3.1-3.1v-1.31c0-1.71-1.39-3.1-3.1-3.1h-3.22L17.66,2.57c-.55-.95-1.57-1.54-2.67-1.54l-10.88-.03c-1.72,0-3.11,1.39-3.11,3.1Z"/>
    <polygon class="cls-1" points="11.41 16.37 8.01 16.37 6.3 19.32 8.01 22.27 11.41 22.27 13.11 19.32 11.41 16.37"/>
    <polygon class="cls-1" points="18.26 11.4 14.86 11.4 13.16 14.34 14.86 17.29 18.26 17.29 19.96 14.34 18.26 11.4"/>
    <polygon class="cls-1" points="10.55 9.93 8.18 9.93 6.99 11.99 8.18 14.04 10.55 14.04 11.74 11.99 10.55 9.93"/>
  </g>
</svg>