<?xml version="1.0" encoding="UTF-8"?>
<svg id="Layer_2" data-name="Layer 2" xmlns="http://www.w3.org/2000/svg" viewBox="0 0 35.18 31.13">
  <defs>
    <style>
      .cls-1 {
        stroke: #76b73d;
      }

      .cls-1, .cls-2 {
        fill: none;
        stroke-linejoin: round;
        stroke-width: 2px;
      }

      .cls-2 {
        stroke: #000;
      }
    </style>
  </defs>
  <g id="Layer_1-2" data-name="Layer 1">
    <path class="cls-2" d="M1,6.38v20.93c0,1.56,1.26,2.82,2.82,2.82h27.54c1.56,0,2.82-1.26,2.82-2.82v-1.87c0-1.56-1.26-2.82-2.82-2.82h-12.98L7.28,3.58l-3.45-.02c-1.56,0-2.84,1.26-2.84,2.82Z"/>
    <polygon class="cls-1" points="11.27 20.96 8.54 20.96 7.17 23.33 8.54 25.7 11.27 25.7 12.64 23.33 11.27 20.96"/>
    <polygon class="cls-1" points="8.53 13.64 5.8 13.64 4.43 16.01 5.8 18.38 8.53 18.38 9.9 16.01 8.53 13.64"/>
    <rect class="cls-1" x="17.01" y="1" width="11.06" height="3.83"/>
    <rect class="cls-1" x="20.96" y="7.38" width="7.11" height="3.83"/>
    <rect class="cls-1" x="20.96" y="13.76" width="7.11" height="3.83"/>
  </g>
</svg>