<?xml version="1.0" encoding="UTF-8"?>
<svg id="Layer_2" data-name="Layer 2" xmlns="http://www.w3.org/2000/svg" xmlns:xlink="http://www.w3.org/1999/xlink" viewBox="0 0 88.46 80.5">
  <defs>
    <style>
      .cls-1, .cls-2, .cls-3, .cls-4, .cls-5 {
        fill: none;
      }

      .cls-1, .cls-2, .cls-4, .cls-5 {
        stroke-linecap: round;
        stroke-linejoin: round;
      }

      .cls-1, .cls-2, .cls-5 {
        stroke-width: 2px;
      }

      .cls-1, .cls-4 {
        stroke: #1c1c1c;
      }

      .cls-2 {
        stroke: #73bc33;
      }

      .cls-3 {
        stroke-width: 0px;
      }

      .cls-6 {
        fill: #fff;
        stroke-miterlimit: 10;
      }

      .cls-6, .cls-5 {
        stroke: #cfd1d3;
      }

      .cls-7 {
        clip-path: url(#clippath);
      }
    </style>
    <clipPath id="clippath">
      <polygon class="cls-3" points="4.46 79.5 87.46 79.5 87.46 31.67 63.46 31.67 39.96 55.17 22.46 55.17 4.46 73.67 4.46 79.5"/>
    </clipPath>
  </defs>
  <g id="Layer_1-2" data-name="Layer 1">
    <g>
      <g class="cls-7">
        <g>
          <line class="cls-1" x1="79.74" y1="79.45" x2="79.74" y2="31.79"/>
          <line class="cls-1" x1="69.74" y1="79.45" x2="69.74" y2="31.79"/>
          <line class="cls-1" x1="59.74" y1="79.45" x2="59.74" y2="31.79"/>
          <line class="cls-1" x1="49.74" y1="79.45" x2="49.74" y2="31.79"/>
          <line class="cls-1" x1="39.74" y1="79.45" x2="39.74" y2="31.79"/>
          <line class="cls-1" x1="29.74" y1="79.45" x2="29.74" y2="31.79"/>
          <line class="cls-1" x1="19.74" y1="79.45" x2="19.74" y2="31.79"/>
          <line class="cls-1" x1="9.74" y1="79.45" x2="9.74" y2="31.79"/>
          <line class="cls-1" x1="2" y1="70.62" x2="88.57" y2="70.62"/>
          <line class="cls-1" x1="2" y1="60.62" x2="88.57" y2="60.62"/>
          <line class="cls-1" x1="2" y1="50.62" x2="88.57" y2="50.62"/>
          <line class="cls-1" x1="2" y1="40.62" x2="88.57" y2="40.62"/>
        </g>
      </g>
      <polygon class="cls-5" points="4.46 79.5 87.46 79.5 87.46 31.67 63.46 31.67 39.96 55.17 22.46 55.17 4.46 73.67 4.46 79.5"/>
      <circle class="cls-2" cx="4" cy="51" r="3"/>
      <circle class="cls-5" cx="58.5" cy="18.5" r="3"/>
      <rect class="cls-2" x="7" y="1" width="35" height="40"/>
      <rect class="cls-6" x="11" y="5.38" width="27" height="9.43"/>
      <rect class="cls-4" x="11.5" y="18.5" width="7" height="4"/>
      <rect class="cls-4" x="21.5" y="18.5" width="7" height="4"/>
      <rect class="cls-4" x="31.5" y="18.5" width="7" height="4"/>
      <rect class="cls-4" x="11.5" y="25.5" width="7" height="4"/>
      <rect class="cls-4" x="21.5" y="25.5" width="7" height="4"/>
      <rect class="cls-4" x="31.5" y="25.5" width="7" height="4"/>
      <rect class="cls-4" x="11.5" y="32.5" width="7" height="4"/>
      <rect class="cls-4" x="21.5" y="32.5" width="7" height="4"/>
      <rect class="cls-4" x="31.5" y="32.5" width="7" height="4"/>
      <polygon class="cls-4" points="31.5 7.6 35 7.6 35 12.6 31.5 12.6 31.5 10.1 31.5 7.6"/>
      <line class="cls-4" x1="35" y1="10.1" x2="31.5" y2="10.1"/>
    </g>
  </g>
</svg>