<?xml version="1.0" encoding="UTF-8"?>
<svg id="Layer_2" data-name="Layer 2" xmlns="http://www.w3.org/2000/svg" xmlns:xlink="http://www.w3.org/1999/xlink" viewBox="0 0 101.91 87.96">
  <defs>
    <style>
      .cls-1 {
        stroke: #1c1c1c;
      }

      .cls-1, .cls-2, .cls-3, .cls-4 {
        fill: none;
      }

      .cls-1, .cls-2, .cls-4 {
        stroke-linecap: round;
        stroke-linejoin: round;
        stroke-width: 2px;
      }

      .cls-2 {
        stroke: #73bc33;
      }

      .cls-5 {
        fill: #73bc33;
      }

      .cls-5, .cls-3 {
        stroke-width: 0px;
      }

      .cls-6 {
        clip-path: url(#clippath);
      }

      .cls-4 {
        stroke: #cfd1d3;
      }
    </style>
    <clipPath id="clippath">
      <polygon class="cls-3" points="95.46 86.96 12.46 86.96 12.46 39.13 36.46 39.13 59.96 62.63 77.46 62.63 95.46 81.13 95.46 86.96"/>
    </clipPath>
  </defs>
  <g id="Layer_1-2" data-name="Layer 1">
    <g class="cls-6">
      <g>
        <line class="cls-1" x1="73.46" y1="11.46" x2="-22.54" y2="86.46"/>
        <line class="cls-1" x1="79.46" y1="17.46" x2="-16.54" y2="92.46"/>
        <line class="cls-1" x1="85.46" y1="23.46" x2="-10.54" y2="98.46"/>
        <line class="cls-1" x1="91.46" y1="29.46" x2="-4.54" y2="104.46"/>
        <line class="cls-1" x1="97.46" y1="35.46" x2="1.46" y2="110.46"/>
        <line class="cls-1" x1="103.46" y1="41.46" x2="7.46" y2="116.46"/>
        <line class="cls-1" x1="109.46" y1="47.46" x2="13.46" y2="122.46"/>
        <line class="cls-1" x1="115.46" y1="53.46" x2="19.46" y2="128.46"/>
        <line class="cls-1" x1="121.46" y1="59.46" x2="25.46" y2="134.46"/>
        <line class="cls-1" x1="67.46" y1="5.46" x2="-28.54" y2="80.46"/>
      </g>
    </g>
    <g>
      <path class="cls-2" d="M72.19,11.46c.12,0,.23,0,.35,0,.02.05.01.13.05.16,3.1,2.7,6.57,4.61,10.76,4.92,1.56.11,3.13.16,4.74.25,0,.18.03.35.03.52,0,6.58,0,13.17-.02,19.75,0,.9-.12,1.8-.29,2.68-.61,3.11-2.56,5.33-5.06,7.06-2.68,1.85-5.47,3.54-8.21,5.31-.68.44-1.34.9-2,1.35h-.35c-.87-.57-1.73-1.15-2.6-1.72-2.8-1.84-5.66-3.58-8.37-5.54-3.24-2.35-4.67-5.65-4.63-9.67.07-6.29.02-12.59.02-18.88,0-.3,0-.61,0-.69,2.7-.33,5.28-.45,7.76-1,3.03-.66,5.6-2.33,7.81-4.51ZM60.11,20.2c0,.34,0,.66,0,.97,0,5.07.07,10.15-.03,15.22-.06,3.17,1.11,5.63,3.69,7.39,2.67,1.82,5.42,3.53,8.15,5.26.21.13.64.15.84.02,2.78-1.76,5.58-3.5,8.29-5.36,2.48-1.7,3.63-4.1,3.58-7.17-.08-5.16-.02-10.32-.02-15.49,0-.28-.03-.56-.04-.86-.26-.04-.46-.09-.66-.1-4.07-.2-7.76-1.47-11.07-3.84-.44-.31-.71-.17-1.07.08-2.47,1.72-5.16,2.94-8.15,3.42-1.15.18-2.3.3-3.52.46Z"/>
      <path class="cls-5" d="M72.39,45.37v-25.18c.27.13.5.23.71.35,2.3,1.29,4.74,2.22,7.35,2.65.49.08.68.25.68.78-.02,4.43-.02,8.86-.01,13.29,0,1.29-.49,2.37-1.51,3.11-2.31,1.66-4.67,3.25-7.22,5.01Z"/>
    </g>
    <polygon class="cls-4" points="95.46 86.96 12.46 86.96 12.46 39.13 36.46 39.13 59.96 62.63 77.46 62.63 95.46 81.13 95.46 86.96"/>
    <polygon class="cls-4" points="33.96 3.13 35.8 8.11 40.78 9.96 35.8 11.8 33.96 16.78 32.11 11.8 27.13 9.96 32.11 8.11 33.96 3.13"/>
    <polygon class="cls-2" points="6.96 19 8.57 23.35 12.91 24.96 8.57 26.57 6.96 30.91 5.35 26.57 1 24.96 5.35 23.35 6.96 19"/>
    <polygon class="cls-2" points="94.96 1 96.57 5.35 100.91 6.96 96.57 8.57 94.96 12.91 93.35 8.57 89 6.96 93.35 5.35 94.96 1"/>
  </g>
</svg>